<svg xmlns="http://www.w3.org/2000/svg" width="1200" height="1200" viewBox="0 0 1200 1200">
  <!-- 1. PAPER BACKGROUND -->
  <rect width="1200" height="1200" fill="#FAF8F3"/>

  <!-- 2. DOUBLE RULE FRAME -->
  <rect x="80" y="80" width="1040" height="1040" fill="none" stroke="#1A1A1A" stroke-width="2.5"/>
  <rect x="96" y="96" width="1008" height="1008" fill="none" stroke="#1A1A1A" stroke-width="0.75"/>

  <!-- 3. TOP CARTOUCHE -->
  <g transform="translate(600, 220)" text-anchor="middle">
    <line x1="-180" y1="0" x2="-60" y2="0" stroke="#1A1A1A" stroke-width="0.75"/>
    <line x1="60" y1="0" x2="180" y2="0" stroke="#1A1A1A" stroke-width="0.75"/>
    <text x="0" y="6" font-family="Inter, 'Helvetica Neue', Helvetica, Arial, sans-serif"
          font-size="18" font-weight="500" fill="#1A1A1A" letter-spacing="6">
      EST · MMXXVI
    </text>
  </g>

  <!-- 4. COURTHOUSE ICON -->
  <g transform="translate(420, 340)" fill="#1A1A1A" stroke="none">
    <polygon points="180,0 0,72 360,72"/>
    <polygon points="180,16 24,80 336,80" fill="#FAF8F3"/>
    <polygon points="180,28 36,84 324,84" fill="#1A1A1A"/>
    <g transform="translate(180, 56)">
      <polygon points="0,-14 4,-4 14,-4 6,3 9,13 0,7 -9,13 -6,3 -14,-4 -4,-4" fill="#FAF8F3"/>
    </g>
    <rect x="0" y="84" width="360" height="6"/>
    <rect x="6" y="92" width="348" height="3"/>
    <g transform="translate(0, 100)" stroke="#1A1A1A" stroke-width="1.5" fill="none">
      <path d="M 30 8 L 30 0 L 50 0 L 50 12 L 38 12 L 38 4 L 46 4 L 46 8"/>
      <path d="M 70 8 L 70 0 L 90 0 L 90 12 L 78 12 L 78 4 L 86 4 L 86 8"/>
      <path d="M 110 8 L 110 0 L 130 0 L 130 12 L 118 12 L 118 4 L 126 4 L 126 8"/>
      <path d="M 150 8 L 150 0 L 170 0 L 170 12 L 158 12 L 158 4 L 166 4 L 166 8"/>
      <path d="M 190 8 L 190 0 L 210 0 L 210 12 L 198 12 L 198 4 L 206 4 L 206 8"/>
      <path d="M 230 8 L 230 0 L 250 0 L 250 12 L 238 12 L 238 4 L 246 4 L 246 8"/>
      <path d="M 270 8 L 270 0 L 290 0 L 290 12 L 278 12 L 278 4 L 286 4 L 286 8"/>
      <path d="M 310 8 L 310 0 L 330 0 L 330 12 L 318 12 L 318 4 L 326 4 L 326 8"/>
    </g>
    <rect x="0" y="116" width="360" height="3"/>
    <rect x="44" y="122" width="52" height="6"/>
    <polygon points="50,128 90,128 84,140 56,140"/>
    <rect x="264" y="122" width="52" height="6"/>
    <polygon points="270,128 310,128 304,140 276,140"/>
    <rect x="56" y="140" width="28" height="160"/>
    <line x1="64" y1="146" x2="64" y2="294" stroke="#FAF8F3" stroke-width="1"/>
    <line x1="70" y1="146" x2="70" y2="294" stroke="#FAF8F3" stroke-width="1"/>
    <line x1="76" y1="146" x2="76" y2="294" stroke="#FAF8F3" stroke-width="1"/>
    <rect x="276" y="140" width="28" height="160"/>
    <line x1="284" y1="146" x2="284" y2="294" stroke="#FAF8F3" stroke-width="1"/>
    <line x1="290" y1="146" x2="290" y2="294" stroke="#FAF8F3" stroke-width="1"/>
    <line x1="296" y1="146" x2="296" y2="294" stroke="#FAF8F3" stroke-width="1"/>
    <polygon points="56,300 84,300 90,312 50,312"/>
    <rect x="44" y="312" width="52" height="6"/>
    <polygon points="276,300 304,300 310,312 270,312"/>
    <rect x="264" y="312" width="52" height="6"/>
    <rect x="20" y="320" width="320" height="6"/>
    <rect x="10" y="328" width="340" height="6"/>
    <rect x="0" y="336" width="360" height="8"/>
  </g>

  <!-- 5. DIVIDER -->
  <g transform="translate(600, 720)">
    <line x1="-220" y1="0" x2="-30" y2="0" stroke="#1A1A1A" stroke-width="1"/>
    <line x1="30" y1="0" x2="220" y2="0" stroke="#1A1A1A" stroke-width="1"/>
    <polygon points="0,-7 7,0 0,7 -7,0" fill="#1A1A1A"/>
  </g>

  <!-- 6. WORDMARK -->
  <text x="600" y="860" text-anchor="middle"
        font-family="'Cormorant Garamond', Garamond, Georgia, 'Times New Roman', serif"
        font-size="148" font-weight="600"
        fill="#1A1A1A" letter-spacing="22">CLIROS</text>

  <!-- 7. LABEL -->
  <text x="600" y="935" text-anchor="middle"
        font-family="Inter, 'Helvetica Neue', Helvetica, Arial, sans-serif"
        font-size="28" font-weight="600"
        fill="#1A1A1A" letter-spacing="8">PROPERTY TITLE SEARCH REPORT</text>

  <!-- 8. SUBTITLE -->
  <text x="600" y="985" text-anchor="middle"
        font-family="'Cormorant Garamond', Garamond, Georgia, serif"
        font-size="24" font-style="italic" font-weight="400"
        fill="#1A1A1A" letter-spacing="2">State of Georgia · Attorney-grade · Delivered in minutes</text>

  <!-- 9. CORNER FLOURISHES -->
  <g stroke="#1A1A1A" stroke-width="1" fill="none">
    <line x1="120" y1="120" x2="160" y2="120"/>
    <line x1="120" y1="120" x2="120" y2="160"/>
    <line x1="1040" y1="120" x2="1080" y2="120"/>
    <line x1="1080" y1="120" x2="1080" y2="160"/>
    <line x1="120" y1="1080" x2="120" y2="1040"/>
    <line x1="120" y1="1080" x2="160" y2="1080"/>
    <line x1="1080" y1="1080" x2="1080" y2="1040"/>
    <line x1="1080" y1="1080" x2="1040" y2="1080"/>
  </g>
</svg>
