<svg xmlns="http://www.w3.org/2000/svg" viewBox="0 0 480 96" fill="none" aria-hidden="true">
  <rect width="480" height="96" fill="#0f172a" />
  <rect x="40" y="44" width="400" height="8" rx="4" fill="rgba(148,163,184,0.35)" />
  <path d="M40 30c80-22 240-22 400 0" stroke="rgba(251,191,36,0.45)" stroke-width="2" fill="none" />
  <path d="M40 66c80 22 240 22 400 0" stroke="rgba(148,163,184,0.55)" stroke-width="1.5" fill="none" />
  <circle cx="240" cy="48" r="28" stroke="rgba(251,191,36,0.7)" stroke-width="1.4" fill="rgba(15,23,42,0.85)" />
  <circle cx="240" cy="48" r="16" fill="rgba(251,191,36,0.25)" />
  <path d="M240 28v16M228 48h24" stroke="rgba(248,250,252,0.55)" stroke-width="1.3" stroke-linecap="round" />
  <g stroke="rgba(251,191,36,0.55)" stroke-width="1.1">
    <line x1="240" y1="12" x2="240" y2="22" stroke-linecap="round" />
    <line x1="210" y1="48" x2="220" y2="48" stroke-linecap="round" />
    <line x1="260" y1="48" x2="270" y2="48" stroke-linecap="round" />
    <line x1="195" y1="36" x2="205" y2="43" stroke-linecap="round" />
    <line x1="285" y1="36" x2="295" y2="43" stroke-linecap="round" />
  </g>
  <g stroke="rgba(148,163,184,0.7)" stroke-width="1.1" fill="rgba(15,23,42,0.95)">
    <path d="M120 44l18-18 18 18v8l-18 18-18-18v-8z" />
    <path d="M360 44l-18-18-18 18v8l18 18 18-18v-8z" />
  </g>
  <path d="M80 48h6M394 48h6" stroke="rgba(251,191,36,0.5)" stroke-width="1.3" />
  <circle cx="160" cy="48" r="6" stroke="rgba(251,191,36,0.4)" stroke-width="1.1" fill="rgba(15,23,42,0.6)" />
  <circle cx="320" cy="48" r="6" stroke="rgba(251,191,36,0.4)" stroke-width="1.1" fill="rgba(15,23,42,0.6)" />
</svg>
